<svg width="169" height="171" viewBox="0 0 169 171" fill="none" xmlns="http://www.w3.org/2000/svg">
<path d="M133.537 171L118.165 124.884H54.4813L39.5973 171H11.5373L69.6093 0.687997H104.257L162.329 171H133.537ZM86.9333 26.064H85.7133L61.0693 101.216H111.333L86.9333 26.064Z" fill="url(#paint0_linear_8_37)"/>
<path d="M127.368 171L111.996 124.884H48.312L33.428 171H5.368L63.44 0.687997H98.088L156.16 171H127.368ZM80.764 26.064H79.544L54.9 101.216H105.164L80.764 26.064Z" fill="#0000FE"/>
<path d="M139.707 171L124.335 124.884H60.6506L45.7666 171H17.7066L75.7786 0.687997H110.427L168.499 171H139.707ZM93.1026 26.064H91.8826L67.2386 101.216H117.503L93.1026 26.064Z" fill="url(#paint1_linear_8_37)"/>
<path d="M139.707 171L124.335 124.884H60.6506L45.7666 171H17.7066L75.7786 0.687997H110.427L168.499 171H139.707ZM93.1026 26.064H91.8826L67.2386 101.216H117.503L93.1026 26.064Z" fill="url(#paint2_linear_8_37)" fill-opacity="0.2"/>
<path d="M139.707 171L124.335 124.884H60.6506L45.7666 171H17.7066L75.7786 0.687997H110.427L168.499 171H139.707ZM93.1026 26.064H91.8826L67.2386 101.216H117.503L93.1026 26.064Z" fill="black" fill-opacity="0.06"/>
<defs>
<linearGradient id="paint0_linear_8_37" x1="84.254" y1="41" x2="229.669" y2="243.5" gradientUnits="userSpaceOnUse">
<stop stop-color="#0000FE"/>
<stop offset="0.813279" stop-color="#9E9E9E" stop-opacity="0"/>
</linearGradient>
<linearGradient id="paint1_linear_8_37" x1="-123.992" y1="203.5" x2="90.4233" y2="138" gradientUnits="userSpaceOnUse">
<stop/>
<stop offset="1" stop-color="#0000FE"/>
</linearGradient>
<linearGradient id="paint2_linear_8_37" x1="125.008" y1="119" x2="150.008" y2="171" gradientUnits="userSpaceOnUse">
<stop/>
<stop offset="1" stop-opacity="0"/>
</linearGradient>
</defs>
</svg>
